<svg width="125" height="181" viewBox="0 0 125 181" fill="none" xmlns="http://www.w3.org/2000/svg">
<path d="M16.9884 94.9648C21.1491 88.7963 30.0027 86.4807 41.1787 87.9392C52.3215 89.3933 65.6081 94.5882 78.3778 103.201C91.1475 111.815 100.941 122.188 106.464 131.975C112.003 141.79 113.172 150.867 109.012 157.035C104.851 163.204 95.9973 165.519 84.8213 164.061C73.6785 162.607 60.3919 157.412 47.6222 148.799C34.8525 140.185 25.0586 129.812 19.5362 120.026C13.9974 110.21 12.8277 101.133 16.9884 94.9648Z" stroke="#44FFA1"/>
<path d="M28.9884 76.9648C33.1491 70.7963 42.0027 68.4807 53.1787 69.9392C64.3215 71.3933 77.6081 76.5882 90.3778 85.2015C103.148 93.8148 112.941 104.188 118.464 113.975C124.003 123.79 125.172 132.867 121.012 139.035C116.851 145.204 107.997 147.519 96.8213 146.061C85.6785 144.607 72.3919 139.412 59.6222 130.799C46.8525 122.185 37.0586 111.812 31.5362 102.026C25.9974 92.2097 24.8277 83.1333 28.9884 76.9648Z" stroke="#44FFA1"/>
<path opacity="0.75" d="M39.9884 59.9648C44.1491 53.7963 53.0027 51.4807 64.1787 52.9392C75.3215 54.3933 88.6081 59.5882 101.378 68.2015C114.148 76.8148 123.941 87.1878 129.464 96.9745C135.003 106.79 136.172 115.867 132.012 122.035C127.851 128.204 118.997 130.519 107.821 129.061C96.6785 127.607 83.3919 122.412 70.6222 113.799C57.8525 105.185 48.0586 94.8122 42.5362 85.0255C36.9974 75.2097 35.8277 66.1333 39.9884 59.9648Z" stroke="#44FFA1"/>
<path opacity="0.5" d="M51.9884 41.9648C56.1491 35.7963 65.0027 33.4807 76.1787 34.9392C87.3215 36.3933 100.608 41.5882 113.378 50.2015C126.148 58.8148 135.941 69.1878 141.464 78.9745C147.003 88.7904 148.172 97.8667 144.012 104.035C139.851 110.204 130.997 112.519 119.821 111.061C108.679 109.607 95.3919 104.412 82.6222 95.7985C69.8525 87.1852 60.0586 76.8122 54.5362 67.0255C48.9974 57.2097 47.8277 48.1333 51.9884 41.9648Z" stroke="#44FFA1"/>
<path opacity="0.25" d="M64.9884 23.9648C69.1491 17.7963 78.0027 15.4807 89.1787 16.9392C100.321 18.3933 113.608 23.5882 126.378 32.2015C139.148 40.8148 148.941 51.1878 154.464 60.9745C160.003 70.7904 161.172 79.8667 157.012 86.0352C152.851 92.2037 143.997 94.5193 132.821 93.0609C121.679 91.6067 108.392 86.4118 95.6222 77.7985C82.8525 69.1852 73.0586 58.8122 67.5362 49.0255C61.9974 39.2097 60.8277 30.1333 64.9884 23.9648Z" stroke="#44FFA1"/>
</svg>
