<svg width="221" height="212" viewBox="0 0 221 212" fill="none" xmlns="http://www.w3.org/2000/svg">
<path d="M113.752 191.545C106.185 186.246 103.498 175.274 105.485 161.599C107.467 147.956 114.09 131.785 124.904 116.341C135.718 100.896 148.649 89.1425 160.791 82.6134C172.962 76.0691 184.192 74.8418 191.758 80.1401C199.325 85.4384 202.013 96.4109 200.026 110.086C198.043 123.729 191.421 139.899 180.606 155.344C169.792 170.789 156.861 182.542 144.719 189.071C132.549 195.616 121.319 196.843 113.752 191.545Z" stroke="#44FFA1"/>
<path d="M92.4541 176.632C84.8872 171.333 82.1997 160.361 84.1868 146.686C86.1693 133.043 92.7916 116.873 103.606 101.428C114.421 85.9832 127.351 74.2295 139.493 67.7004C151.664 61.1561 162.894 59.9288 170.46 65.2271C178.027 70.5255 180.715 81.4979 178.728 95.1727C176.745 108.816 170.123 124.986 159.308 140.431C148.494 155.876 135.563 167.629 123.421 174.159C111.251 180.703 100.021 181.93 92.4541 176.632Z" stroke="#44FFA1"/>
<path opacity="0.75" d="M71.5657 162.006C64.1151 156.789 61.5258 145.892 63.5871 132.266C65.6433 118.674 72.3122 102.534 83.1273 87.0884C93.9423 71.6429 106.828 59.8561 118.897 53.2751C130.996 46.6778 142.122 45.384 149.572 50.6009C157.023 55.8178 159.612 66.7147 157.551 80.3408C155.494 93.9328 148.825 110.073 138.01 125.518C127.195 140.964 114.31 152.75 102.241 159.331C90.1415 165.929 79.0162 167.222 71.5657 162.006Z" stroke="#44FFA1"/>
<path opacity="0.5" d="M49.8581 146.806C42.2913 141.507 39.6038 130.535 41.5909 116.86C43.5733 103.217 50.1957 87.0465 61.0102 71.6019C71.8246 56.1572 84.7552 44.4035 96.8973 37.8744C109.068 31.3302 120.298 30.1028 127.865 35.4011C135.431 40.6995 138.119 51.672 136.132 65.3467C134.149 78.9896 127.527 95.1604 116.713 110.605C105.898 126.05 92.9674 137.803 80.8254 144.333C68.6549 150.877 57.4249 152.104 49.8581 146.806Z" stroke="#44FFA1"/>
<path opacity="0.25" d="M28.1506 131.606C20.7001 126.389 18.1108 115.492 20.172 101.866C22.2282 88.2741 28.8972 72.1344 39.7122 56.6889C50.5273 41.2434 63.4128 29.4565 75.4818 22.8756C87.5811 16.2782 98.7065 14.9844 106.157 20.2014C113.608 25.4183 116.197 36.3152 114.136 49.9412C112.079 63.5333 105.41 79.673 94.5954 95.1185C83.7804 110.564 70.8948 122.351 58.8258 128.932C46.7265 135.529 35.6012 136.823 28.1506 131.606Z" stroke="#44FFA1"/>
</svg>
