<svg width="202" height="317" viewBox="0 0 202 317" fill="none" xmlns="http://www.w3.org/2000/svg">
<path d="M53.0012 291.034C40.0902 284.169 33.8042 267.512 34.2651 245.889C34.7253 224.298 41.9195 197.918 55.7623 171.883C69.605 145.849 87.4524 125.133 105.095 112.678C122.763 100.204 140.088 96.1012 152.999 102.966C165.91 109.831 172.196 126.488 171.735 148.111C171.275 169.702 164.08 196.082 150.238 222.117C136.395 248.151 118.548 268.867 100.905 281.322C83.2368 293.796 65.9123 297.899 53.0012 291.034Z" stroke="#44FFA1"/>
<path d="M17.0012 272.034C4.09023 265.169 -2.19578 248.512 -1.73494 226.889C-1.27469 205.298 5.91953 178.918 19.7623 152.883C33.605 126.849 51.4524 106.133 69.0948 93.6778C86.7631 81.2044 104.088 77.1012 116.999 83.9661C129.91 90.831 136.196 107.488 135.735 129.111C135.275 150.702 128.08 177.082 114.238 203.117C100.395 229.151 82.5475 249.867 64.9052 262.322C47.2368 274.796 29.9123 278.899 17.0012 272.034Z" stroke="#44FFA1"/>
<path opacity="0.75" d="M-17.9987 253.034C-30.6617 246.301 -36.7306 229.767 -36.1103 208.224C-35.4909 186.717 -28.1981 160.388 -14.3548 134.353C-0.511415 108.317 17.2382 87.5482 34.7221 75.008C52.2344 62.4476 69.3358 58.2331 81.9987 64.9661C94.6616 71.6991 100.731 88.2334 100.11 109.776C99.4909 131.283 92.1981 157.612 78.3547 183.647C64.5114 209.683 46.7618 230.452 29.2778 242.992C11.7655 255.552 -5.33583 259.767 -17.9987 253.034Z" stroke="#44FFA1"/>
<path opacity="0.5" d="M-53.9988 233.034C-66.9098 226.169 -73.1958 209.512 -72.7349 187.889C-72.2747 166.298 -65.0805 139.918 -51.2377 113.883C-37.395 87.8489 -19.5476 67.1328 -1.90525 54.6778C15.7631 42.2044 33.0877 38.1012 45.9987 44.9661C58.9097 51.831 65.1957 68.4882 64.7349 90.1109C64.2746 111.702 57.0804 138.082 43.2377 164.117C29.3949 190.151 11.5475 210.867 -6.09482 223.322C-23.7632 235.796 -41.0877 239.899 -53.9988 233.034Z" stroke="#44FFA1"/>
<path opacity="0.25" d="M-90.9987 214.034C-103.662 207.301 -109.731 190.767 -109.11 169.224C-108.491 147.717 -101.198 121.388 -87.3548 95.3527C-73.5114 69.3172 -55.7618 48.5482 -38.2779 36.008C-20.7656 23.4476 -3.66421 19.2331 8.9987 25.9661C21.6616 32.6991 27.7306 49.2334 27.1103 70.7755C26.4909 92.2827 19.1981 118.612 5.35473 144.647C-8.48862 170.683 -26.2382 191.452 -43.7222 203.992C-61.2345 216.552 -78.3358 220.767 -90.9987 214.034Z" stroke="#44FFA1"/>
</svg>
